<?xml version="1.0" encoding="utf-8"?>
<!-- Generator: Adobe Illustrator 22.1.0, SVG Export Plug-In . SVG Version: 6.00 Build 0)  -->
<svg version="1.1" id="Layer_1" xmlns="http://www.w3.org/2000/svg" xmlns:xlink="http://www.w3.org/1999/xlink" x="0px" y="0px" viewBox="0 0 492 58">
<polygon points="5,21 2,18 2,3 3,2 489,2 490,3 490,19 487,21 487,5 5,5 "/>
<polygon points="487,37 490,40 490,55 489,56 3,56 2,55 2,40 5,37 5,53 487,53 "/>
<path d="M16,26l-6-4l-5,5l-5-6v16l5-6l5,5l6-4l8-3L16,26z M2,31v-4l2,2L2,31z M10,33l-4-4l4-4l7,4L10,33z"/>
<path d="M476,32l6,4l5-5l5,6V21l-5,6l-5-5l-6,4l-8,3L476,32z M490,27v4l-2-2L490,27z M482,25l4,4l-4,4l-7-4L482,25z"/>
</svg>
