<?xml version="1.0" encoding="utf-8"?>
<!-- Generator: Adobe Illustrator 22.1.0, SVG Export Plug-In . SVG Version: 6.00 Build 0)  -->
<svg version="1.1" xmlns="http://www.w3.org/2000/svg" xmlns:xlink="http://www.w3.org/1999/xlink" x="0px" y="0px" viewBox="0 0 100 58">
<polygon fill="#945329" points="5,5 5,23 2,20 2,3 3,2 5,2"/>
<polygon fill="#945329" points="5,56 3,56 2,55 2,38 5,35"/>

<path fill="#945329" d="
M16,
26l-6-4l-5,
5l-5-6
v16l5-6l5,
5l6-4l8-3
L16,26z 

M2,
31v-4l2,
2L2,
31z 
M10,
33l-4-4l4-4l7,
4L10,
33z"/>
</svg>
